<svg width="723" height="212" viewBox="0 0 723 212" fill="none" xmlns="http://www.w3.org/2000/svg">
<g id="Logo" clip-path="url(#clip0_107_30)">
<g id="Group">
<path id="Vector" d="M132.811 191.215C132.368 188.41 131.222 185.881 129.217 183.775C126.807 181.224 125.335 178.275 125.109 174.687C124.848 170.568 122.487 167.853 118.749 166.408C117.521 165.929 116.65 165.283 116.063 164.163C115.363 162.825 114.564 161.525 113.982 160.139C113.242 158.382 111.951 157.199 110.213 156.814C108.185 156.357 107.292 155.125 106.845 153.313C106.678 152.649 106.452 151.999 106.353 151.326C105.672 146.985 103.301 143.805 99.581 141.61C98.3938 140.905 97.8024 139.925 97.2428 138.71C96.1048 136.248 95.0665 133.623 93.387 131.564C90.9939 128.632 87.9833 126.374 83.7306 128.054L83.1934 127.905C82.6794 126.826 82.2138 125.624 81.5638 124.53C79.9746 121.879 78.9364 121.645 76.2729 123.181L75.9078 123.203C75.6771 122.724 75.4291 122.195 75.1674 121.667C74.2557 119.843 73.438 117.958 72.4005 116.206C71.47 114.634 70.3465 113.207 68.1478 113.311C67.5882 113.337 67.0055 112.814 66.0171 112.349C67.1233 111.58 67.6959 111.07 68.3553 110.745C70.4093 109.72 71.9624 108.229 72.7389 106.061C73.091 105.085 73.746 104.543 74.6259 104.272C75.7046 103.942 76.8151 103.649 77.9351 103.549C80.9507 103.278 82.9505 101.48 84.4175 99.1133C85.93 96.674 87.0449 94.0004 87.5148 91.1184C87.7541 89.6275 88.0158 88.2726 89.5508 87.3654C90.2774 86.9365 90.7293 85.8022 90.9953 84.8994C91.3207 83.7521 91.4609 82.5093 91.4472 81.3172C91.4248 79.2439 91.9439 77.5099 93.4333 75.9648C96.1604 73.1602 96.9319 69.6908 96.2956 65.8829C95.7809 62.807 95.4562 59.7941 96.5986 56.7182C97.9571 53.0774 97.0902 49.8388 93.9799 47.3865C93.0277 46.6363 92.6749 45.8102 92.8375 44.6586C92.9366 43.9851 93.0045 43.3029 93.0356 42.6215C93.1441 40.2864 93.2793 37.9513 93.293 35.6118C93.293 34.9702 93.0667 34.2113 92.6835 33.7006C89.9795 30.1097 87.8076 29.0123 83.9931 30.3448C83.2072 30.6204 82.4169 30.9235 81.605 31.0494C80.2913 31.2657 79.8264 30.8418 79.6862 29.518C79.5871 28.5421 79.5734 27.5489 79.3745 26.5911C78.9769 24.5816 77.8172 23.6057 75.7538 23.4972C75.004 23.456 74.2326 23.4929 73.4966 23.6375C71.2169 24.0846 69.2576 23.7055 67.4067 22.1329C66.1068 21.0174 64.4995 20.2405 62.9603 19.4368C60.283 18.0363 57.5248 16.7899 54.8656 15.3576C53.2229 14.4635 51.521 13.9933 49.6737 13.926C48.7707 13.8898 47.8409 14.0164 46.956 13.858C44.022 13.3299 41.6513 14.4005 39.4035 16.1577C36.8983 18.1137 34.3476 20.0191 31.7289 21.8218C28.2888 24.1931 24.5646 25.3809 20.3705 24.0397L19.4856 23.8589C17.7793 23.3214 16.2393 23.7641 14.6733 24.4955C12.15 25.6789 10.0504 27.3681 8.2581 29.4594C7.20614 30.6928 6.1361 31.1623 4.5108 30.4172C3.06624 29.7618 2.23118 30.033 1.54505 31.1673C-0.0976062 33.8822 -1.15897 38.3672 2.24925 41.6008C2.80018 42.1202 3.3511 42.6403 3.93384 43.1228C6.29516 45.0789 6.61473 47.5355 5.74351 50.3133C5.36466 51.5373 4.9446 52.7663 4.71902 54.0214C3.80226 59.193 4.20497 63.9992 8.61093 67.6899C9.53131 68.4581 10.3172 69.4203 11.0532 70.3773C12.3713 72.0896 13.3647 73.9096 12.7646 76.2361C12.3127 77.9881 12.1189 79.8038 11.6764 81.5523C11.3012 83.0294 11.3012 84.3612 12.1732 85.6807C12.4848 86.1501 12.706 86.8229 12.6518 87.3654C12.5079 88.7833 12.8101 90.0615 13.4196 91.3173C14.0746 92.6585 14.1281 93.9917 13.7045 95.4819C13.0089 97.9118 13.2757 100.279 14.9863 102.324C15.7173 103.196 16.3767 104.118 17.1076 104.989C18.1957 106.281 18.7329 107.65 18.2225 109.385C17.6448 111.345 17.947 113.215 18.832 115.098C20.7103 119.104 21.9293 123.351 21.9474 127.791C21.9517 130.307 22.191 132.94 20.6836 135.276C19.4104 137.241 20.137 139.223 21.4369 140.722C23.243 142.809 24.0875 145.261 24.9898 147.756C25.4142 148.935 25.3151 149.938 24.6514 150.981C22.6603 154.12 22.5518 157.49 23.3601 161.031C23.9291 163.52 25.0483 165.733 26.4025 167.829C27.3684 169.324 28.0951 170.869 28.3662 172.612C28.5925 174.094 29.1788 175.336 30.353 176.32C30.7232 176.632 31.0839 177.156 31.1244 177.622C31.3681 180.087 31.9552 182.518 31.2466 185.048C30.5243 187.617 31.1201 188.982 33.4633 190.377C35.0344 191.312 35.6121 192.641 35.7025 194.302C35.7704 195.585 35.6844 196.882 35.748 198.164C35.8745 200.432 36.565 202.478 38.3711 203.996C39.188 204.683 40.0687 205.387 41.224 204.899C42.4018 204.412 42.8811 203.355 42.9035 202.153C42.9346 200.722 42.8674 199.276 42.7727 197.844C42.61 195.347 42.7004 192.976 45.2649 191.566L45.5989 191.263C48.2899 188.594 48.5697 185.792 46.7007 182.477C45.3285 180.038 44.7009 177.449 45.9286 174.672C46.4115 173.579 46.8142 172.373 46.8996 171.19C46.9762 170.033 46.8721 168.719 46.3718 167.707C45.4008 165.756 44.124 163.949 42.918 162.116C41.0266 159.243 39.9566 156.313 41.9926 153.041L42.2724 152.423C44.2042 148.896 44.3756 145.372 42.1914 141.881C41.5233 140.814 41.4373 139.79 42.187 138.715C43.5817 136.736 43.3063 134.758 42.2181 132.734C41.5725 131.542 41.0129 130.286 40.561 129.012C39.6941 126.573 40.48 125.09 43.3829 124.061C44.5339 125.316 45.7753 126.739 47.0846 128.099C49.0302 130.113 51.4501 130.89 54.1231 130.127C56.1366 129.554 57.3281 130.389 58.3078 131.871C59.3503 133.452 60.2353 135.132 61.3053 136.686C62.1585 137.918 63.0883 139.133 64.172 140.164C65.305 141.252 66.1899 141.108 67.3229 140.014C69.4268 137.965 69.8779 137.928 71.8872 140.019C72.989 141.18 74.1762 142.006 75.8376 141.809C77.079 141.655 77.8693 142.174 78.3609 143.263C79.4129 145.602 80.5415 147.91 81.5074 150.282C82.7177 153.263 84.7175 154.202 87.6023 152.983C88.0173 152.807 88.4243 152.604 88.848 152.432C90.4777 151.773 90.6447 151.74 91.5795 153.321C92.7305 155.267 93.7825 157.283 94.7484 159.333C96.044 162.066 98.1747 163.859 101.051 164.365C102.802 164.676 103.723 165.499 104.427 166.921C104.793 167.667 105.236 168.381 105.601 169.126C107.299 172.572 109.222 175.788 113.19 177.067L113.948 177.555C115.903 178.91 117.75 180.314 117.881 183.025C118.016 185.718 119.117 188.147 120.12 190.604C120.806 192.28 121.804 193.631 123.42 194.498C124.734 195.207 125.628 196.264 126.151 197.692C126.652 199.038 127.257 200.352 127.894 201.635C128.783 203.415 130.399 204.522 131.532 204.223C132.711 203.911 133.333 202.615 133.275 200.388C133.253 199.412 132.751 198.329 133.036 197.483C133.764 195.32 133.136 193.274 132.811 191.215ZM63.9342 94.8829C63.4649 95.181 62.8685 95.3032 62.3132 95.4255C61.0805 95.7141 59.7943 95.8363 58.5977 96.2342C57.2435 96.6863 55.9024 97.2549 54.6566 97.9595C53.6994 98.5064 52.7739 99.2334 52.0835 100.078C51.0901 101.302 49.921 102.151 48.3224 102.792C47.7802 102.337 47.2618 101.799 46.6523 101.388C43.9794 99.585 42.3635 99.4548 40.2284 101.058C39.6457 101.496 38.9639 101.79 37.8129 102.44C38.0298 101.013 38.0884 100.083 38.3277 99.2016C38.5489 98.4066 39.0001 97.6796 39.2936 96.9026C40.1966 94.5176 39.9212 93.5193 37.7449 92.1369C36.8513 91.5727 36.5122 90.9216 36.5354 89.9197C36.5715 88.4064 36.5491 86.8887 36.5397 85.371C36.531 83.135 35.641 81.464 33.5559 80.4563C32.1561 79.7785 32.0347 79.2909 32.3781 77.7371C32.5943 76.7887 32.775 75.8129 32.8835 74.8421C33.2674 71.5716 31.6334 69.2951 29.2316 67.3571C28.8209 67.0273 28.4009 66.3994 28.4146 65.9162C28.4688 63.5991 27.6967 61.2821 28.6048 58.9557C29.1781 57.4785 28.2433 56.295 27.2412 55.3416C25.6701 53.8601 25.485 52.0625 25.8733 50.1202C26.1936 48.4853 26.9433 47.9927 28.5824 48.2184C29.0292 48.2864 29.4991 48.2951 29.9271 48.4216C33.6477 49.5465 36.5773 48.133 39.1685 45.5852C39.5973 45.1606 40.0484 44.749 40.4685 44.3157C41.8906 42.8429 43.6468 42.3235 45.6336 42.5318C46.9155 42.6627 48.1793 42.9694 49.4575 43.0374C51.1096 43.1279 52.7624 43.0649 54.6039 43.0649C58.2152 49.6275 59.7639 50.4139 65.3259 48.3898C66.662 49.7404 68.1652 50.9651 67.1855 53.3494C66.7387 54.4475 67.145 55.6172 67.9258 56.5338C69.0002 57.8033 70.0746 59.0772 71.2531 60.2469C72.052 61.0463 73.0273 61.6698 73.9441 62.3882C73.357 63.359 73.0772 63.874 72.7475 64.3486C71.4071 66.2865 71.1403 67.6414 72.5986 69.3125C74.6122 71.6114 73.5558 74.0326 73.438 76.4495L73.1539 77.0455C71.7187 78.663 70.2554 80.2661 68.8245 81.8879C67.4075 83.4917 66.9831 85.4969 66.6577 87.5159C66.4683 88.7081 66.401 89.9241 66.2109 91.1206C65.9607 92.6693 65.3064 94.0243 63.9342 94.8829Z" fill="#1ABED6"/>
<path id="Vector_2" d="M721.508 93.3696C720.447 92.8553 719.432 93.0983 718.438 93.528C715.878 94.6348 713.282 95.6779 710.795 96.9294C709.188 97.7331 707.492 98.6279 706.281 99.9018C702.494 103.904 697.041 105.358 692.977 108.895L692.571 109.093C688.932 110.561 685.361 112.246 681.628 113.425C678.373 114.451 675.028 115.068 672.834 118.186C672.78 117.373 672.851 116.713 673.077 116.108C673.746 114.324 673.438 112.68 672.468 111.125C671.75 109.969 670.933 108.872 670.22 107.711C669.876 107.155 669.452 106.505 669.461 105.908C669.498 104.422 668.839 103.343 668.008 102.204C667.475 101.459 667.037 100.452 667.01 99.5531C666.87 94.8692 666.892 90.1845 666.802 85.5056C666.756 83.1481 665.741 81.3179 663.674 80.0628C663.073 79.6968 662.4 79.0645 662.225 78.4323C660.969 73.8561 658.216 69.7501 658.008 64.8499C657.981 64.3305 657.827 63.7973 657.642 63.3098C656.152 59.4252 654.721 55.5181 653.101 51.6928C652.433 50.1115 651.395 48.6618 650.378 47.257C649.99 46.7325 649.033 46.1053 648.59 46.263C647.941 46.4844 647.218 47.3156 647.087 47.9934C646.853 49.2268 646.992 50.5361 647.042 51.8194C647.168 55.7359 647.326 59.661 647.479 63.6447C645.014 64.1959 644.419 65.8402 644.558 67.8093C644.748 70.4431 645.055 73.0625 645.353 75.6819C645.525 77.1815 645.909 78.6638 645.953 80.1626C646.035 83.1119 645.985 86.0706 645.935 89.0198C645.882 92.3265 646.418 95.5246 647.841 98.5057C649.024 101.007 649.759 103.591 649.882 106.347C649.95 107.779 650.026 109.22 649.981 110.652C649.94 112.07 650.455 113.185 651.543 114.013C652.301 114.587 653.168 115.015 654.428 115.774C653.444 119.347 652.536 123.011 651.416 126.614C650.347 130.074 648.897 133.394 649.887 137.207C650.337 138.928 649.647 139.633 647.931 140.224C646.862 140.595 645.742 140.835 644.686 141.245C641.945 142.315 639.155 143.296 636.519 144.597C634.248 145.722 634.117 147.162 635.724 149.145L636.072 149.647L635.81 150.071C635.299 150.387 634.776 150.69 634.239 150.965C630.812 152.74 628.045 155.297 625.602 158.224C623.946 160.211 623.919 161.549 625.264 163.576C626.831 165.929 626.794 166.716 624.723 168.589C622.204 170.875 619.62 173.094 617.029 175.293C615.856 176.291 614.862 177.362 614.321 178.853C614.14 179.353 613.703 179.954 613.238 180.122C610.492 181.12 608.777 183.157 607.441 185.61C606.253 187.796 604.664 189.576 602.443 190.728C601.242 191.346 599.933 191.767 598.755 192.426C593.486 195.376 589.161 199.531 584.854 203.669C583.865 204.618 583.283 206.049 582.71 207.346C582.109 208.687 581.821 210.124 583.21 211.275C584.38 212.242 585.775 212.247 587.432 211.271L588.357 210.621C591.426 208.042 594.447 205.408 597.566 202.892C598.723 201.956 600.022 201.044 601.407 200.584C604.116 199.681 606.919 199.035 609.718 198.407C612.743 197.72 615.375 196.483 617.569 194.179C620.485 191.107 623.574 188.198 626.602 185.231C627.085 184.761 627.605 184.287 628.179 183.944C630.137 182.761 631.568 181.08 632.39 179.016C633.844 175.348 636.263 172.367 638.769 169.426C639.893 168.102 641.138 166.87 642.186 165.482C642.85 164.606 643.459 163.582 643.722 162.524C644.552 159.253 646.421 156.86 649.202 155.035C653.057 152.497 656.84 149.872 660.677 147.303C662.356 146.182 663.585 144.714 664.496 142.907C665.07 141.774 665.801 140.69 666.615 139.71C668.949 136.887 671.941 135.143 675.476 134.104C681.146 132.437 685.177 128.707 687.728 123.417C688.396 122.035 689.412 121.1 690.64 120.351C691.47 119.836 692.377 119.42 693.294 119.077C695.958 118.073 698.224 116.488 700.354 114.623C701.601 113.53 702.919 112.45 704.369 111.678C708.756 109.357 712.63 106.348 716.219 102.96C718.31 100.991 720.305 98.9093 722.25 96.7992C723.499 95.4566 723.142 94.1603 721.508 93.3696Z" fill="#1ABED6"/>
<path id="Vector_3" d="M120.098 102.358C120.012 99.5126 120.5 96.7941 121.507 94.1422C122.252 92.1818 122.64 90.1085 121.692 88.1713C120.639 86.0207 120.396 83.8715 120.816 81.5769V80.669C120.698 78.93 119.877 78.0807 118.13 77.9179C116.573 77.7827 115.141 78.1342 113.823 79.0153C113.363 79.3271 112.754 79.6208 112.23 79.589C109.481 79.4219 108.456 80.1851 108.804 82.8363C109.174 85.7089 108.83 88.4013 107.828 91.0656C107.67 91.4859 107.629 91.9467 107.535 92.3937C107.191 94.0243 107.417 95.4153 109.128 96.1886C110.216 96.6805 110.469 97.647 110.284 98.6547C110.108 99.6038 109.715 100.52 109.354 101.424C108.74 102.969 107.981 104.459 107.454 106.026C106.591 108.606 106.858 110.973 109.178 112.761C110.085 113.461 110.555 114.378 110.505 115.507C110.406 117.766 110.401 120.038 110.09 122.269C109.882 123.795 109.597 125.282 110.275 126.714C110.893 128.015 110.993 129.339 110.677 130.694C110.293 132.356 110.641 133.846 111.562 135.224C112.397 136.467 112.699 137.835 112.659 139.317C112.632 140.677 112.654 142.041 112.654 143.404H112.591C112.591 144.994 112.541 146.588 112.605 148.179C112.682 150.103 113.11 151.945 114.501 153.386C116.04 154.977 117.878 154.791 119.056 152.939C119.367 152.434 119.657 151.842 119.719 151.263C119.923 149.471 120.23 147.646 120.099 145.862C119.796 141.543 120.23 137.407 122.315 133.53C122.671 132.881 122.78 132.099 123.047 131.389C124.18 128.435 123.827 125.603 122.361 122.862L122.149 122.459C121.408 120.987 121.435 119.577 122.338 118.15C123.065 117.003 123.611 115.733 124.374 114.608C126.103 112.084 125.859 108.813 122.491 106.84C120.622 105.746 120.152 104.273 120.098 102.358Z" fill="#1ABED6"/>
<path id="Vector_4" d="M111.385 69.7284C113.155 71.1738 115.218 71.6982 117.335 70.93C119.52 70.1393 120.572 68.3055 120.743 65.9979C120.973 62.8996 121.416 59.8643 122.16 56.8333C122.959 53.5722 120.973 51.5525 117.334 52.0589C117.529 50.9658 117.727 50.0992 117.827 49.2181C118.143 46.6074 116.219 44.1775 113.935 44.4394C112.193 44.6383 110.572 45.28 109.335 46.653C107.953 48.1887 107.47 50.5868 108.604 52.3128C109.62 53.8399 109.322 55.0631 108.55 56.4954C107.76 57.9545 107.011 59.4678 106.528 61.0398C105.881 63.1767 106.152 65.2629 107.932 66.8624C109.047 67.8585 110.229 68.7837 111.385 69.7284Z" fill="#1ABED6"/>
<path id="Vector_5" d="M584.779 108.262C583.046 108.718 582.319 109.924 582.662 111.65C583.059 113.655 584.274 114.789 586.3 114.608C588.07 114.451 589.51 115.083 591.073 115.675C593.425 116.569 595.221 118.773 598.16 118.417C597.975 118.999 597.93 119.392 597.745 119.699C596.562 121.718 596.124 123.882 596.052 126.207C596.016 127.265 595.497 128.39 594.941 129.334C594.197 130.608 593.958 131.881 594.341 133.245C594.644 134.333 594.991 135.44 595.542 136.416C596.197 137.576 596.233 138.525 595.668 139.78C594.463 142.491 594.138 145.31 595.633 148.096C595.871 148.548 596.061 149.108 596.039 149.605C595.872 152.848 596.134 156.221 595.317 159.294C594.174 163.567 594.075 167.809 594.174 172.113C594.22 174.083 594.625 176.052 595.854 177.677C597.032 179.231 598.499 179.1 599.479 177.424C599.705 177.04 599.826 176.589 599.962 176.155C600.625 173.996 601.28 171.832 601.917 169.656C602.255 168.499 602.688 167.348 602.833 166.164C603.439 161.069 604.017 155.965 604.481 150.856C604.738 148.02 605.189 145.31 606.892 142.933C607.275 142.397 607.619 141.719 607.668 141.082C607.831 138.904 608.133 136.696 607.311 134.563C606.932 133.588 606.977 132.657 607.496 131.736C609.049 128.968 609.198 126.004 608.819 122.932C608.644 121.532 608.665 120.1 608.598 118.687L609.149 118.285C609.934 118.651 610.869 118.849 611.479 119.41C614.074 121.799 617.234 122.043 620.399 121.555C622.151 121.28 623.465 121.551 624.805 122.563C626.539 123.876 628.529 124.555 630.71 124.64C633.775 124.748 634.945 123.696 635.085 120.729C635.704 120.282 636.359 119.889 636.927 119.396C638.484 118.037 638.629 116.357 637.171 114.861C636.458 114.124 635.524 113.492 634.566 113.131C633.307 112.657 631.943 112.398 630.602 112.223C629.641 112.097 628.919 111.771 628.282 111.026C627.041 109.558 625.383 108.89 623.475 108.858C622.044 108.836 620.608 108.853 619.145 108.853C617.217 106.197 616.626 106.008 613.037 106.487C611.498 106.685 609.918 107.074 608.12 106.288C608.487 105.123 608.726 103.935 609.222 102.877C610.712 99.6978 611.718 96.368 612.341 92.945C613.019 89.2188 613.742 85.5287 615.501 82.1223L615.637 81.689C616.03 79.0739 616.107 76.558 613.863 74.5838C612.075 73.0162 612.035 72.6054 613.222 70.5545C614.436 68.4589 615.759 66.4218 616.861 64.2712C617.502 63.0204 618.057 61.6243 618.201 60.2469C618.481 57.4785 616.585 55.8928 613.804 56.3356C611.316 56.7327 609.827 58.3321 608.838 60.532C608.13 62.1082 607.362 63.6577 606.607 65.2246C604.675 69.2358 602.64 73.1971 602.07 77.7277C601.868 79.3495 601.245 80.9258 600.699 82.4883C599.855 84.9319 599.164 87.4074 599.209 90.0138C599.236 91.7933 598.848 93.447 598.058 95.0457C596.992 97.2137 596.708 99.4728 597.186 101.889C597.724 104.6 596.883 105.562 594.184 105.575C592.712 105.579 591.3 105.714 590.126 106.704C589.092 107.576 587.891 107.9 586.573 107.978C585.971 108.013 585.361 108.109 584.779 108.262Z" fill="#1ABED6"/>
<path id="Vector_6" d="M174.064 127.327C171.36 129.274 169.594 129.292 166.854 127.377C166.046 126.813 165.283 126.185 164.466 125.642C163.035 124.685 161.536 124.368 160.069 125.561C159.179 126.28 158.276 126.261 157.328 125.774C155.734 124.947 154.244 125.264 152.823 126.167C151.735 126.849 150.724 127.662 149.618 128.304C148.092 129.18 146.679 128.372 146.656 126.619C146.647 126.031 146.765 125.398 147.003 124.862C147.491 123.76 148.069 122.698 148.66 121.65C149.405 120.34 150.349 119.117 150.945 117.743C152.313 114.582 151.812 113.019 149.054 111.189C148.742 110.981 148.426 110.782 147.924 110.457C148.317 107.53 150.195 105.809 152.181 104.142C154.845 101.911 157.535 99.7065 160.1 97.362C161.536 96.0476 162.488 94.404 161.486 92.3532C162.916 91.4497 164.357 91.1061 165.905 91.1198C167.192 91.1292 168.479 91.1336 169.765 91.0837C173.016 90.9571 175.851 89.9233 177.846 87.2041C178.691 86.0474 179.083 84.7287 178.371 83.3687C177.721 82.1179 176.601 81.5486 175.184 81.6116C172.696 81.7194 170.204 81.7562 167.726 81.9776C166.602 82.0811 165.694 82.0905 164.895 81.1283C164.02 80.0758 162.801 79.7279 161.423 79.8139C158.006 80.0353 154.918 81.1826 152.304 83.3781C151.497 84.0559 150.697 85.162 150.566 86.1603C150.246 88.6806 148.864 89.8553 146.54 90.2749L145.46 90.6091C140.937 91.9054 139.443 93.7436 138.824 98.3508C138.571 100.275 138.314 102.348 137.429 104.011C136.165 106.36 135.502 108.731 135.357 111.336C135.267 113.058 134.599 114.544 133.425 115.826C132.608 116.716 131.683 117.579 131.141 118.632C130.428 120.009 129.814 121.523 129.565 123.049C129.249 124.951 130.491 126.192 132.405 126.337C132.749 126.363 133.091 126.341 133.651 126.341C133.159 127.187 132.667 127.782 132.432 128.474C131.976 129.815 131.443 131.188 131.326 132.575C131.141 134.743 132.169 135.755 134.377 135.926C135.433 136.012 136.494 135.963 137.555 135.985C139.759 136.04 140.449 136.767 140.021 138.925C139.632 140.917 140.029 142.633 141.678 143.762C143.199 144.816 143.51 146.189 143.547 147.847C143.569 148.899 143.677 149.974 143.97 150.982C144.192 151.74 144.652 152.5 145.194 153.086C146.123 154.107 147.423 154.219 148.421 153.294C149.283 152.486 150.051 151.501 150.615 150.462C151.477 148.872 152.051 147.119 152.895 145.52C153.563 144.265 154.344 143.035 155.26 141.957C156.059 141.012 157.057 140.579 158.479 141.116C159.346 141.445 160.578 141.229 161.504 140.877C162.61 140.457 163.662 139.748 164.546 138.953C166.085 137.557 167.724 137.174 169.76 137.512C174.433 138.289 178.731 135.2 179.48 130.529C179.637 129.567 179.434 128.356 178.943 127.53C177.901 125.765 176.208 125.783 174.064 127.327Z" fill="#1ABED6"/>
<path id="Vector_7" d="M584.111 162.668C584.861 161.629 585.104 160.409 584.738 159.208C584.148 157.265 583.484 155.333 582.694 153.458C581.398 150.418 580.658 147.401 581.191 143.991C582.025 138.625 580.838 133.525 577.569 129.162C576.17 127.297 575.659 125.53 575.966 123.312C576.162 121.903 576.148 120.453 575.317 119.13C573.421 116.117 571.602 113.064 568.323 111.244C567.177 110.612 567.218 109.252 568.347 108.498C569.037 108.041 569.859 107.802 570.586 107.395C571.899 106.668 573.281 106.009 574.463 105.096C575.935 103.958 577.498 103.159 579.329 102.811C580.038 102.675 580.72 102.3 581.37 101.948C583.582 100.756 585.031 98.8449 586.296 96.7355C587.032 95.5072 587.298 94.2196 587.144 92.8234C587.045 91.9206 587.032 90.9896 586.783 90.1273C586.431 88.9171 586.178 87.5029 585.379 86.6355C583.872 84.9869 582.901 83.0489 581.709 81.2289C580.987 80.1134 580.721 79.2504 581.502 77.9628C582.653 76.0747 582.202 74.3899 580.594 72.8723C578.816 71.2099 576.78 70.4598 574.351 71.011C572.324 71.4667 570.446 70.9886 568.654 70.0764C565.841 68.6397 564.035 68.78 561.968 71.1108C559.869 73.4821 558.017 76.0798 556.067 78.582C555.76 78.9741 555.48 79.39 555.124 79.887C553.945 78.8026 554.04 77.4976 553.887 76.2512C553.543 73.4777 553.264 70.6905 552.708 67.9626C552.379 66.3415 551.286 65.6362 550.017 65.6268C548.632 65.6094 547.35 66.6026 546.929 68.1659C546.759 68.7887 546.83 69.4846 546.808 70.1487C546.735 72.1048 546.78 74.0695 546.578 76.0161C546.194 79.7698 545.373 83.5011 545.278 87.2591C545.178 91.3831 544.573 95.3712 543.697 99.3781C543.404 100.737 543.558 102.214 543.648 103.632C543.761 105.457 544.848 106.645 546.415 107.508C548.365 108.574 548.831 109.898 547.996 112.015C547.53 113.212 546.889 114.337 546.425 115.539C545.626 117.599 545.494 119.721 546.6 121.69C547.796 123.827 547.833 125.877 547.16 128.218C546.632 130.06 546.415 132.133 546.663 134.025C546.983 136.465 547.006 138.841 546.712 141.248C546.59 142.223 546.474 143.231 546.6 144.188C546.704 144.951 547.02 145.823 547.534 146.378C549.462 148.456 552.551 147.963 553.647 145.267C554.279 143.7 554.536 141.893 554.563 140.195C554.609 137.561 555.141 135.153 556.22 132.742C557.006 130.989 557.29 128.984 557.656 127.068C557.872 125.912 557.81 124.711 557.858 123.857C558.395 124.255 559.063 124.716 559.71 125.212C562.77 127.556 564.978 130.595 566.861 133.916C567.566 135.158 568.386 136.401 569.398 137.389C571.565 139.504 572.392 141.992 572.247 144.964C572.179 146.383 572.188 147.923 572.675 149.211C573.615 151.708 574.247 154.247 574.752 156.857C575.222 159.247 576.161 161.506 578.002 163.23C579.939 165.044 582.58 164.795 584.111 162.668ZM566.536 96.9373C565.949 98.0304 564.996 98.9209 564.121 99.9958C563.588 99.6211 563.11 99.454 562.915 99.1198C562.039 97.6115 560.997 96.2877 559.629 95.1629C559.128 94.752 559.118 93.7537 558.838 92.8769C561.19 92.3308 562.491 91.0837 563.285 89.1059C564.635 85.7682 565.389 85.4246 569.912 85.8535C566.589 88.0982 566.612 90.7769 567.325 93.7805C567.553 94.7339 567.037 95.994 566.536 96.9373Z" fill="#1ABED6"/>
<path id="Vector_8" d="M535.708 114.901C534.05 112.9 533.644 110.986 534.759 108.654C535.468 107.155 536.199 105.633 536.637 104.043C537.725 100.14 537.645 96.2914 535.684 92.6013C535.275 91.8288 535.08 90.8934 534.99 90.013C534.782 88.1387 534.141 86.5798 532.751 85.2119C530.294 82.7907 527.649 80.7717 524.349 79.6107C519.807 78.0207 515.592 78.5495 512.078 81.7874C509.821 83.87 508.079 86.5032 506.069 88.8563C505.446 89.5834 504.769 90.3292 503.975 90.8348C500.458 93.0708 497.718 95.8754 497.031 100.176C496.625 102.692 495.745 104.873 494.043 106.883C491.858 109.467 491.681 113.35 493.56 115.759C496.038 118.943 496.485 122.457 495.98 126.269C495.781 127.765 495.687 129.273 495.515 131.094C495.708 132.449 495.768 134.134 496.223 135.705C496.75 137.53 498.205 138.488 499.816 138.077C501.699 137.588 503.008 138.46 504.431 139.351C505.564 140.064 506.737 140.732 507.965 141.265C508.688 141.582 509.197 141.916 509.577 142.661C510.791 145.041 512.28 145.836 514.963 145.318C517.021 144.916 518.989 144.126 521.156 144.531C521.634 144.622 522.249 144.437 522.681 144.18C524.884 142.873 527.404 141.857 529.156 140.091C532.279 136.943 535.132 133.466 537.724 129.852C539.272 127.693 540.415 125.145 539.693 122.182C539.007 119.369 537.468 117.038 535.708 114.901ZM519.179 122.589C520.299 124.906 520.227 124.943 520.002 127.223C518.606 127.359 517.139 127.499 515.834 127.616C514.746 125.927 513.785 124.414 512.806 122.914C511.975 121.659 510.946 120.673 509.32 120.751C508.129 120.805 507.717 120.1 507.524 119.125C507.317 118.09 507.145 117.043 506.933 116.008C506.333 113.103 507.014 110.56 509.236 108.591C511.407 106.666 512.278 104.458 511.786 101.531C511.397 99.2182 513.032 97.8401 514.995 96.878C514.657 98.3328 514.287 99.7825 514.002 101.246C513.415 104.218 514.652 106.395 517.05 108.031C517.614 108.414 518.233 108.708 518.792 109.097C520.232 110.09 520.525 110.931 519.975 112.597C519.718 113.384 519.348 114.137 519.032 114.91C517.979 117.49 517.934 120.024 519.179 122.589Z" fill="#1ABED6"/>
<path id="Vector_9" d="M494.201 182.478C494.489 178.68 493.438 175.342 491.357 172.185C489.235 168.969 488.174 165.495 489.772 161.665L490.026 160.793C490.965 157.342 490.535 154.153 487.985 151.506C486.071 149.514 485.547 147.229 486.107 144.6C486.846 141.145 486.604 137.942 484.523 134.845C482.722 132.156 482.41 129.189 483.842 126.009C485.051 123.34 485.842 120.457 486.608 117.616C487.204 115.403 487.209 113.059 486.374 110.905C485.696 109.147 485.873 107.552 486.293 105.823C486.74 103.998 486.988 102.115 487.232 100.249C487.421 98.8131 486.943 97.5436 485.873 96.5583C484.464 95.267 483.977 93.6589 484.211 91.8295C484.492 89.7288 484.897 87.6512 483.801 85.6279C483.607 85.2756 483.72 84.7337 483.751 84.2816C484.022 80.6321 483.101 77.2351 481.67 73.9284C480.849 72.0223 480.501 70.0171 480.718 67.9438C481.133 63.9196 480.88 59.9041 480.181 55.9608C479.427 51.7196 478.239 47.5637 477.346 43.3449C477.034 41.8858 476.832 40.3508 476.922 38.8736C477.106 35.8607 477.468 32.8528 477.87 29.8536C478.358 26.2396 479.242 22.7347 480.799 19.4014C482.294 16.1765 483.68 12.8973 485.066 9.62255C485.562 8.43908 485.986 7.2151 486.285 5.96798C486.646 4.46839 486.628 2.95505 485.721 1.59146C484.516 -0.219915 482.926 -0.558462 481.346 0.959214C480.06 2.20996 478.841 3.63793 477.978 5.20046C476.281 8.27198 474.331 11.1171 471.979 13.7148C470.34 15.5261 469.641 17.6855 469.541 20.1515C469.356 24.944 468.263 29.4341 464.792 33.0604C463.803 34.0949 462.937 35.2603 462.138 36.4524C461.334 37.6359 460.49 38.8599 460.033 40.1924C458.946 43.3312 457.763 46.4931 457.208 49.7541C456.472 54.0945 455.334 58.296 454.183 62.5329C453.226 66.0514 451.592 68.9421 449.127 71.4812C447.565 73.0893 446.472 74.9954 445.791 77.0998C444.973 79.6201 444.26 82.1679 443.579 84.7294C443.271 85.8948 443.059 87.1007 442.947 88.2972C442.423 94.0243 442.007 99.7615 441.425 105.475C441.285 106.83 441.408 108.334 440.468 109.563L440.067 109.211C438.568 107.147 438.387 104.757 438.157 102.318C437.624 96.5995 437.042 90.8949 437.272 85.1359C437.34 83.3969 437.272 81.6535 437.325 79.9145C437.371 78.4916 436.775 77.4347 435.7 76.5855C435.29 76.265 434.866 75.967 434.391 75.6139C434.477 74.5433 434.562 73.4908 434.644 72.4433C434.838 69.8868 434.49 67.5112 432.838 65.3657C432.247 64.6068 431.99 63.4053 431.999 62.4113C432.021 59.8462 432.26 57.276 432.465 54.7144C432.622 52.5913 431.859 50.866 430.378 49.4076C429.999 49.0416 429.507 48.7436 429.236 48.3146C428.812 47.6462 428.197 46.8736 428.239 46.1784C428.369 43.6986 428.586 41.2008 429.069 38.7709C429.448 36.8554 430.319 35.044 430.865 33.1559C431.849 29.7408 432.878 26.3401 433.655 22.8758C434.052 21.1049 433.172 19.8672 431.682 19.1952C430.255 18.5398 429.063 18.6975 427.921 20.2564C425.957 22.9308 424.12 25.7173 422.45 28.5761C421.714 29.845 421.411 31.3988 421.082 32.863C420.535 35.3203 419.949 37.7639 418.116 39.6245C416.134 41.6391 415.05 44.0914 414.346 46.7702C414.233 47.2129 414.006 47.6281 413.745 48.2697C412.508 45.081 412.003 44.7693 409.321 45.4102C409.226 44.9769 409.191 44.5204 409.024 44.1182C408.279 42.3162 406.862 42.0363 405.525 43.4766C404.965 44.0734 404.396 44.7591 404.121 45.5136C403.087 48.3551 402.044 51.2009 401.236 54.1046C400.433 57.0177 400.026 60.04 399.246 62.9575C397.521 69.3805 396.252 75.9387 393.485 82.055C393.146 82.8001 393.019 83.6494 392.867 84.4625C392.063 88.8397 392.186 93.1938 393.11 97.5436C394.216 102.719 394.109 107.923 393.3 113.127C392.786 116.491 390.813 119.088 388.687 121.578C385.319 125.511 383.847 130.037 384.267 135.218C384.47 137.738 385.003 140.133 386.018 142.45C387.78 146.451 388.43 150.548 386.836 154.79C386.569 155.495 386.376 156.245 386.285 156.99C386.046 158.869 385.974 160.712 386.827 162.55C387.31 163.603 387.527 164.867 387.535 166.042C387.567 170.663 387.459 175.279 387.449 179.9C387.445 180.717 387.598 181.558 387.82 182.348C388.132 183.495 388.799 184.435 390.024 184.719C391.35 185.026 392.163 184.159 392.849 183.225C394.076 181.549 394.943 179.696 395.151 177.614C395.531 173.869 396.759 170.41 398.221 166.981C398.881 165.419 399.152 163.625 399.264 161.918C399.481 158.567 398.745 155.297 398.049 152.035C397.878 151.236 397.752 150.363 397.891 149.573C398.582 145.685 400.068 142.084 403.025 139.429C405.458 137.23 406.469 134.745 406.05 131.575C405.954 130.82 406.013 130.043 405.855 129.307C405.354 127.026 405.652 124.826 406.162 122.577C406.857 119.483 407.643 116.371 407.9 113.222C408.329 107.995 409.222 102.883 410.451 97.8054C411.308 94.2818 411.322 90.7856 410.067 87.3032C408.848 83.9156 408.956 80.4831 410.135 77.0549C410.722 75.3427 411.046 73.545 411.61 71.8241C412.234 69.918 412.667 67.8946 414.437 65.9567C414.581 67.0548 414.78 67.7637 414.749 68.4545C414.627 70.7224 414.468 72.9851 414.243 75.2349C413.959 78.1574 414.582 80.6639 417.173 82.3762C418.324 83.13 418.916 84.2194 419.138 85.5562C419.367 86.8981 420.04 88.1626 421.191 88.6914C423.917 89.9516 424.374 92.2953 424.627 94.8388L424.695 95.5159C425.232 100.041 426.026 104.455 428.274 108.556C429.182 110.209 429.304 112.309 429.705 114.22C429.976 115.471 429.863 116.849 430.342 118.001C431.285 120.291 431.128 122.563 430.888 124.92C430.396 129.939 431.75 132.839 436.192 133.72C437.29 133.936 437.904 134.605 438.008 135.739C438.121 136.864 438.269 137.988 438.414 139.113C438.793 142.049 439.25 144.976 441.082 147.442C442.152 148.883 443.519 149.715 445.394 149.281C446.938 148.919 448.215 147.343 448.387 145.423C448.549 143.689 448.689 141.936 448.59 140.206C448.319 135.491 449.701 131.259 451.944 127.193C452.586 126.032 453.091 124.695 453.271 123.385C453.596 120.995 453.709 118.566 453.782 116.148C453.912 111.786 454.698 107.707 458.206 104.658L458.662 104.152C461.813 99.8338 463.596 95.1679 462.49 89.7114C461.646 85.5201 462.373 81.4365 463.488 77.3986C463.705 76.6079 464.029 75.8447 464.31 75.0678C464.693 75.9988 464.693 76.83 464.693 77.6604C464.698 80.2263 465.483 82.408 467.691 83.9395C468.242 84.3229 468.707 84.8473 469.153 85.3616C470.246 86.6312 470.828 88.0628 470.35 89.7613C469.907 91.3643 469.461 92.9638 468.973 94.5581C468.025 97.6615 466.639 100.705 466.183 103.876C465.538 108.375 465.759 112.95 467.511 117.3C467.867 118.199 468.229 119.161 468.287 120.114C468.404 122.305 468.467 124.514 468.328 126.7C467.845 134.071 469.853 140.611 474.616 146.276C475.853 147.74 475.961 149.28 475.501 151.137C474.874 153.684 474.454 156.308 474.255 158.924C474.034 161.734 475.194 163.938 477.993 165.013L478.381 165.42C478.381 166.847 478.395 168.36 478.372 169.868C478.35 171.873 479.013 173.604 480.53 174.918C481.721 175.958 482.945 177.01 484.294 177.823C485.672 178.658 486.087 179.729 485.888 181.246C485.698 182.669 485.627 184.105 485.532 185.542C485.455 186.747 485.758 187.809 486.922 188.419C488.001 188.983 488.791 188.328 489.599 187.745L490.036 187.719L490.326 188.036C491.648 189.368 492.501 189.593 493.671 188.925C494.835 188.256 495.079 187.281 494.654 185.582C494.4 184.57 494.124 183.495 494.201 182.478Z" fill="#1ABED6"/>
<path id="Vector_10" d="M245.925 64.3623C244.304 64.6336 242.607 64.7688 241.103 65.3743C239.298 66.097 237.506 67.0591 235.971 68.2513C231.379 71.8197 226.892 75.5322 222.4 79.2316C221.285 80.1532 220.314 81.2868 218.702 81.1334C217.312 81.0025 216.188 81.5494 215.159 82.3755C213.506 83.6942 211.908 85.0947 210.238 86.3954C209.47 86.9922 208.64 87.5521 207.75 87.9405C206.257 88.6003 204.694 89.1102 203.141 89.6882C202.099 87.8501 202.013 85.9302 203.033 83.9387C203.449 83.135 203.801 82.2633 203.945 81.3823C204.374 78.7896 204.956 76.2057 203.439 73.6673C202.984 72.9084 203.137 71.7749 203.055 70.8041C202.947 69.5302 203.232 68.0755 202.721 67.0099C201.863 65.2347 202.179 63.6852 202.744 62.0279C202.96 61.3819 203.196 60.7403 203.371 60.0856C204.153 57.1993 204.405 54.2724 203.809 51.3232C203.154 48.0527 200.342 47.032 197.669 49.0604C197.186 49.4221 196.707 49.7831 196.269 50.1129C193.588 49.4351 193.073 49.5075 191.895 51.2595C191.367 52.0458 190.978 53.0304 190.865 53.9657C190.717 55.3069 190.92 56.6849 190.892 58.0485C190.816 62.2768 191.181 66.5903 190.472 70.7093C189.552 76.048 188.341 81.3873 186.355 86.4959C185.76 88.0266 185.579 89.7208 185.209 91.3376C184.861 92.8777 184.608 94.4453 184.147 95.9499C183.429 98.3255 182.508 100.643 181.795 103.028C181.547 103.868 181.534 104.839 181.642 105.725C181.823 107.188 182.694 108.236 184.102 108.705C185.371 109.13 186.296 108.471 187.068 107.545C187.98 106.438 188.865 105.309 189.799 104.212C190.201 103.742 190.68 103.339 191.126 102.906L191.663 103.208C191.347 104.491 191.009 105.779 190.715 107.076C190.494 108.024 190.196 108.986 190.182 109.944C190.137 113.467 189.64 116.823 187.758 119.926C186.973 121.227 186.525 122.998 187.862 124.135C189.32 125.383 189.149 126.742 188.882 128.233C188.047 132.925 187.198 137.609 186.313 142.289C186.16 143.102 185.911 143.915 185.559 144.66C184.34 147.222 183.925 149.972 183.312 152.704C182.657 155.641 184.02 157.502 185.758 159.349C186.81 160.474 187.866 160.591 188.927 159.493C189.957 158.432 191.022 157.186 191.455 155.826C192.349 153.007 193.311 150.243 194.574 147.574C194.89 146.896 195.066 146.138 195.224 145.406C195.843 142.52 196.425 139.629 197.025 136.742C197.589 134.01 198.159 131.281 198.804 128.197C201.215 129.326 202.379 127.745 203.634 126.246C203.914 125.903 204.447 125.772 204.989 125.477C205.495 126.823 205.751 128.056 206.393 129.041C207.034 130.021 208.072 130.748 208.916 131.602L209.435 132.342C211.34 135.87 213.448 139.349 213.728 143.477C213.904 146.043 215.182 147.877 217.074 149.395C219.313 151.188 220.582 153.609 221.141 156.292C221.918 159.969 223.768 163.044 225.971 165.926C226.951 167.208 227.416 168.505 227.587 170.05C227.728 171.314 227.84 172.679 228.401 173.78C229.339 175.629 230.057 177.457 230.21 179.553C230.319 181.084 231.528 181.997 232.964 182.019C234.562 182.037 235.344 181.372 235.732 179.634C235.799 179.345 235.809 179.038 235.858 178.587C238.129 178.623 239.253 178.022 239.542 176.278C239.939 173.893 240.196 171.472 239.262 169.11C238.816 167.985 238.45 166.829 238.071 165.678C235.85 158.92 233.715 152.159 233.345 144.95C233.249 143.247 232.329 141.458 231.385 139.962C229.782 137.434 228.572 134.873 228.094 131.86C227.444 127.785 225.778 126.353 221.72 125.676C220.194 125.419 218.812 124.949 217.851 123.584C215.67 120.491 213.427 117.442 211.224 114.375C210.912 113.941 210.673 113.467 210.402 113.01C209.666 111.791 208.98 110.539 208.194 109.356C206.605 106.948 207.486 104.116 210.213 103.068C211.91 102.422 213.617 101.817 215.309 101.167C220.13 99.3195 223.476 96.185 224.726 90.9592C225.457 87.9289 227.024 85.358 230.184 84.1659C230.821 83.9264 231.385 83.5112 232.003 83.2312C235.159 81.7722 237.43 79.4233 238.906 76.3019C239.479 75.096 240.413 74.3147 241.416 73.4655C243.547 71.6635 245.511 69.6626 247.488 67.6841C248.084 67.0924 248.468 66.3241 247.989 65.4213C247.546 64.5786 246.828 64.2082 245.925 64.3623Z" fill="#1ABED6"/>
<path id="Vector_11" d="M352.782 134.248C351.523 131.23 350.403 128.208 350.606 124.834C350.746 122.508 350.547 120.164 350.633 117.833C350.701 115.95 350.774 114.034 351.193 112.21C351.938 108.975 352.917 105.787 353.852 102.597C354.29 101.111 354.196 99.7021 353.229 98.51C351.857 96.8071 351.708 94.901 352.173 92.9319C352.751 90.5107 353.527 88.1308 354.169 85.7226C354.399 84.8603 354.66 83.9525 354.616 83.0757C354.548 81.5812 353.956 80.1981 352.476 79.589C350.895 78.9336 349.482 79.5434 348.399 80.7587C347.654 81.5949 346.877 82.5115 346.475 83.5372C345.762 85.353 345.252 87.2634 344.782 89.1652C343.866 92.8914 343.035 96.6451 342.164 100.381L341.862 101.234C340.083 103.98 339.465 107.07 339.049 110.246C338.838 111.893 337.966 112.979 336.418 113.895C334.179 115.228 332.093 116.922 330.228 118.75C328.458 120.482 327.041 122.572 325.479 124.51C325.524 123.187 325.453 121.844 325.683 120.563C326.486 116.109 327.416 111.673 328.278 107.22C328.707 104.997 329.173 102.766 329.452 100.521C329.592 99.3513 329.575 98.0687 329.24 96.9533C328.825 95.5752 327.985 94.297 326.292 94.1935C324.681 94.085 323.579 94.9654 322.802 96.2986C322.54 96.755 322.31 97.2383 322.111 97.7258C320.125 102.654 318.152 107.586 316.039 112.849C315.335 109.633 314.021 107.297 310.414 108.125C309.15 106.024 308.839 103.842 308.41 101.706C308.067 100.012 307.259 98.6026 306.081 97.3699C305.169 96.4165 304.014 96.4165 302.92 96.8187C301.806 97.2347 301.056 98.034 301.056 99.3889C301.056 100.514 300.88 101.638 300.798 102.767C300.662 104.641 300.437 106.521 300.428 108.395C300.424 110.356 300.541 112.33 300.767 114.281C301.105 117.199 299.322 119.114 297.796 121.436C297.042 119.9 296.288 118.663 295.81 117.321C295.484 116.423 295.629 115.371 295.421 114.417C295.092 112.945 294.595 111.512 294.261 110.04C293.882 108.355 293.575 106.652 293.286 104.958C293.146 104.137 293.187 103.292 293.038 102.479C292.315 98.5491 291.191 94.6919 291.177 90.6402C291.173 89.375 290.992 88.07 290.668 86.846C290.297 85.4687 289.272 84.741 288.225 84.9804C286.884 85.2922 285.539 85.7436 284.816 87.0305C284.086 88.3406 283.404 89.6998 282.889 91.109C282.347 92.5955 282.026 94.1624 281.621 95.6982C281.341 96.7731 280.74 97.4372 279.549 97.3786C277.368 97.2795 276.271 98.6474 275.495 100.405C274.949 101.652 274.561 102.97 273.928 104.172C272.262 107.365 271.842 110.613 273.22 114.014C273.689 115.175 273.797 116.358 273.36 117.551C271.856 121.656 271.134 126.056 268.696 129.819C268.213 130.564 267.789 131.467 267.717 132.335C267.59 133.803 267.248 135.624 267.92 136.725C269.135 138.681 269.365 140.624 269.306 142.756C269.288 143.203 269.351 143.672 269.456 144.106C269.808 145.497 270.9 146.49 272.096 146.554C273.414 146.617 274.227 145.94 274.719 144.232C275.084 142.986 275.522 141.834 276.493 140.886C277.623 139.774 277.862 138.31 277.306 136.879C276.859 135.705 277.197 134.833 277.843 133.938C278.331 133.265 278.913 132.638 279.297 131.915C279.667 131.207 280.06 130.397 280.055 129.634C280.033 127.087 281.4 125.271 282.872 123.297C283.387 123.69 283.694 124.065 284.087 124.205C285.888 124.823 286.529 126.319 287.03 127.931C287.739 130.244 288.285 132.616 289.17 134.855C290.38 137.941 291.834 140.927 293.206 143.953L293.766 144.661C294.516 145.456 295.395 145.672 296.447 145.316C297.833 144.859 298.664 143.915 298.673 142.488C298.682 139.471 298.579 136.449 298.497 133.428C298.452 131.738 298.339 130.044 298.249 128.093C299.843 128.943 300.47 129.91 300.335 131.364C300.271 132.037 300.389 132.737 300.285 133.401C299.874 136.011 301.571 137.443 303.278 138.857C303.933 139.395 304.745 139.404 305.368 138.825C306.985 137.317 308.569 135.772 308.258 133.229C308.172 132.57 308.154 131.852 308.317 131.215C308.944 128.771 308.715 126.422 307.762 124.118C307.445 123.359 307.306 122.632 307.78 121.706C308.881 122.71 310.027 123.418 310.701 124.444C312.285 126.829 313.684 129.34 315.066 131.851C316.159 133.834 317.084 135.903 318.145 137.904C318.7 138.947 319.522 139.773 320.831 139.651C322.158 139.525 323.047 138.812 323.417 137.465C323.647 136.621 323.986 135.808 324.32 134.855L324.614 135.18L324.704 135.849C324.889 138.938 326.564 140.84 329.394 141.884C330.383 142.245 331.349 142.679 332.261 143.19C335.963 145.262 340.156 144.489 342.798 141.206C343.214 140.692 343.606 140.159 344.193 139.395C344.442 140.543 344.64 141.414 344.807 142.286C345.24 144.441 346.292 146.252 347.864 147.747C349.345 149.156 351.362 149.26 353.06 148.109C354.554 147.092 355.344 145.782 355.186 143.899C354.899 140.54 354.068 137.342 352.782 134.248ZM280.641 114.021C281.955 110.52 283.192 107.241 284.424 103.957L285.011 104.106C285.011 105.831 284.763 107.602 285.079 109.269C285.377 110.804 286.284 112.228 287.056 114.02H280.641V114.021ZM339.699 131.14C338.936 131.772 338.363 132.635 337.64 133.331C336.403 134.532 334.855 134.319 334.611 132.734C334.381 131.267 334.778 129.681 335.022 128.168C335.261 126.685 335.875 125.624 337.509 124.969C338.968 124.373 340.119 123.023 341.803 121.703C342.182 125.354 342.777 128.578 339.699 131.14Z" fill="#1ABED6"/>
<path id="Vector_12" d="M627.142 189.985V190.42H625.892V193.681H625.387V190.42H624.135V189.985" fill="#1ABED6"/>
<path id="Vector_13" d="M627.486 189.985H628.199L629.269 193.107L630.33 189.985H631.039V193.681H630.569V191.518L630.574 191.12V190.564L629.513 193.681H629.02L627.933 190.564V190.673L627.959 191.088V193.681H627.486" fill="#1ABED6"/>
</g>
</g>
<defs>
<clipPath id="clip0_107_30">
<rect width="723" height="212" fill="white"/>
</clipPath>
</defs>
</svg>
